#N canvas 0 0 1440 847 10;
#X obj 1285 43 loadbang;
#X msg 1285 81 bang;
#X msg 1229 112 updown;
#X obj 1285 110 delay 1;
#X floatatom 1228 337 5 0 0 0 - - -, f 5;
#X obj 1228 272 metro 200;
#X floatatom 1492 192 5 0 0 0 - - -, f 5;
#X obj 1228 388 outlet;
#X obj 1228 305 counter 0 127;
#X obj 1756 341 outlet;
#X obj 1801 341 outlet;
#X obj 1847 341 outlet;
#X obj 1892 341 outlet;
#X obj 1937 341 outlet;
#X obj 1982 341 outlet;
#X obj 2028 341 outlet;
#X obj 2073 341 outlet;
#X obj 2119 341 outlet;
#X obj 1621 341 outlet;
#X obj 1667 341 outlet;
#X obj 1712 342 outlet;
#N canvas 54 136 1244 373 colors 0;
#X msg 593 130 bang;
#X obj 593 93 loadbang;
#X obj 58 404 outlet;
#X msg 58 331 color 13;
#X obj 117 404 outlet;
#X msg 117 331 color 13;
#X obj 177 404 outlet;
#X msg 177 331 color 13;
#X obj 236 404 outlet;
#X msg 236 331 color 13;
#X obj 295 404 outlet;
#X obj 354 404 outlet;
#X obj 414 404 outlet;
#X obj 473 404 outlet;
#X obj 534 404 outlet;
#X msg 534 331 color 13;
#X obj 593 404 outlet;
#X msg 593 331 color 13;
#X obj 653 404 outlet;
#X msg 653 331 color 13;
#X obj 712 404 outlet;
#X msg 712 331 color 13;
#X obj 771 404 outlet;
#X msg 771 331 color 13;
#X obj 830 404 outlet;
#X msg 830 331 color 13;
#X obj 890 404 outlet;
#X msg 890 331 color 13;
#X obj 949 404 outlet;
#X msg 949 331 color 13;
#X obj 1008 404 outlet;
#X msg 1008 331 color 13;
#X obj 1067 404 outlet;
#X msg 1067 331 color 13;
#X obj 1127 404 outlet;
#X msg 1127 331 color 13;
#X obj 1186 404 outlet;
#X msg 1186 331 color 13;
#X msg 295 331 color 6;
#X msg 354 331 color 6;
#X msg 414 331 color 6;
#X msg 473 331 color 6;
#X connect 0 0 3 0;
#X connect 0 0 5 0;
#X connect 0 0 7 0;
#X connect 0 0 9 0;
#X connect 0 0 38 0;
#X connect 0 0 39 0;
#X connect 0 0 40 0;
#X connect 0 0 41 0;
#X connect 0 0 15 0;
#X connect 0 0 17 0;
#X connect 0 0 19 0;
#X connect 0 0 21 0;
#X connect 0 0 23 0;
#X connect 0 0 25 0;
#X connect 0 0 27 0;
#X connect 0 0 29 0;
#X connect 0 0 31 0;
#X connect 0 0 33 0;
#X connect 0 0 35 0;
#X connect 0 0 37 0;
#X connect 1 0 0 0;
#X connect 3 0 2 0;
#X connect 5 0 4 0;
#X connect 7 0 6 0;
#X connect 9 0 8 0;
#X connect 15 0 14 0;
#X connect 17 0 16 0;
#X connect 19 0 18 0;
#X connect 21 0 20 0;
#X connect 23 0 22 0;
#X connect 25 0 24 0;
#X connect 27 0 26 0;
#X connect 29 0 28 0;
#X connect 31 0 30 0;
#X connect 33 0 32 0;
#X connect 35 0 34 0;
#X connect 37 0 36 0;
#X connect 38 0 10 0;
#X connect 39 0 11 0;
#X connect 40 0 12 0;
#X connect 41 0 13 0;
#X restore 265 100 pd colors;
#X obj 265 234 outlet;
#X obj 308 234 outlet;
#X obj 351 234 outlet;
#X obj 394 234 outlet;
#X obj 439 234 outlet;
#X obj 482 234 outlet;
#X obj 525 234 outlet;
#X obj 568 234 outlet;
#X obj 611 234 outlet;
#X obj 654 234 outlet;
#X obj 697 234 outlet;
#X obj 740 234 outlet;
#X obj 785 234 outlet;
#X obj 828 234 outlet;
#X obj 871 234 outlet;
#X obj 914 234 outlet;
#X obj 957 234 outlet;
#X obj 1002 234 outlet;
#X obj 1045 234 outlet;
#X obj 1088 234 outlet;
#N canvas 2 53 1438 847 preset1 0;
#X obj 122 219 nxRandom;
#X msg 143 176 1;
#X msg 171 176 200;
#X obj 89 176 delay 1;
#X msg 88 134 bang;
#X floatatom 810 326 5 0 0 0 - - -, f 5;
#X obj 811 366 select 0 1 2 3 4 5 6 7 8 9 10 11;
#X obj 810 433 bng 15 250 50 0 empty empty empty 17 7 0 10 -262144
-1 -1;
#X obj 829 433 bng 15 250 50 0 empty empty empty 17 7 0 10 -262144
-1 -1;
#X obj 849 433 bng 15 250 50 0 empty empty empty 17 7 0 10 -262144
-1 -1;
#X obj 868 433 bng 15 250 50 0 empty empty empty 17 7 0 10 -262144
-1 -1;
#X obj 888 433 bng 15 250 50 0 empty empty empty 17 7 0 10 -262144
-1 -1;
#X obj 907 433 bng 15 250 50 0 empty empty empty 17 7 0 10 -262144
-1 -1;
#X obj 927 433 bng 15 250 50 0 empty empty empty 17 7 0 10 -262144
-1 -1;
#X obj 946 433 bng 15 250 50 0 empty empty empty 17 7 0 10 -262144
-1 -1;
#X obj 965 433 bng 15 250 50 0 empty empty empty 17 7 0 10 -262144
-1 -1;
#X obj 984 433 bng 15 250 50 0 empty empty empty 17 7 0 10 -262144
-1 -1;
#X obj 1003 433 bng 15 250 50 0 empty empty empty 17 7 0 10 -262144
-1 -1;
#X obj 1022 433 bng 15 250 50 0 empty empty empty 17 7 0 10 -262144
-1 -1;
#X obj 919 194 nxRandom;
#X obj 886 151 delay 1;
#X msg 885 109 bang;
#X obj 892 250 metro;
#X floatatom 919 224 5 0 0 0 - - -, f 5;
#X obj 824 196 delay 2;
#X msg 824 225 bang;
#X obj 810 296 counter 11;
#X obj 240 219 nxRandom;
#X msg 261 176 1;
#X msg 289 176 200;
#X obj 207 176 delay 1;
#X msg 206 134 bang;
#X obj 353 219 nxRandom;
#X msg 374 176 1;
#X msg 402 176 200;
#X obj 320 176 delay 1;
#X msg 319 134 bang;
#X obj 471 219 nxRandom;
#X msg 492 176 1;
#X msg 520 176 200;
#X obj 438 176 delay 1;
#X msg 437 134 bang;
#X obj 91 354 nxRandom;
#X msg 144 311 1;
#X msg 172 311 200;
#X obj 90 311 delay 1;
#X msg 89 269 bang;
#X obj 241 354 nxRandom;
#X msg 262 311 1;
#X msg 290 311 200;
#X obj 208 311 delay 1;
#X msg 207 269 bang;
#X obj 354 354 nxRandom;
#X msg 375 311 1;
#X msg 403 311 200;
#X obj 321 311 delay 1;
#X msg 320 269 bang;
#X obj 472 354 nxRandom;
#X msg 493 311 1;
#X msg 521 311 200;
#X obj 439 311 delay 1;
#X msg 438 269 bang;
#X obj 126 486 nxRandom;
#X msg 147 443 1;
#X msg 175 443 200;
#X obj 93 443 delay 1;
#X msg 92 401 bang;
#X obj 244 486 nxRandom;
#X msg 265 443 1;
#X msg 293 443 200;
#X obj 211 443 delay 1;
#X msg 210 401 bang;
#X obj 357 486 nxRandom;
#X msg 378 443 1;
#X msg 406 443 200;
#X obj 324 443 delay 1;
#X msg 323 401 bang;
#X obj 475 486 nxRandom;
#X msg 496 443 1;
#X msg 524 443 200;
#X obj 442 443 delay 1;
#X msg 441 401 bang;
#X msg 51 62 bang;
#X floatatom 713 578 5 0 0 0 - - -, f 5;
#X floatatom 753 578 5 0 0 0 - - -, f 5;
#X floatatom 790 578 5 0 0 0 - - -, f 5;
#X floatatom 830 578 5 0 0 0 - - -, f 5;
#X floatatom 867 578 5 0 0 0 - - -, f 5;
#X floatatom 907 578 5 0 0 0 - - -, f 5;
#X floatatom 944 578 5 0 0 0 - - -, f 5;
#X floatatom 984 578 5 0 0 0 - - -, f 5;
#X floatatom 1022 578 5 0 0 0 - - -, f 5;
#X floatatom 1062 578 5 0 0 0 - - -, f 5;
#X floatatom 1099 578 5 0 0 0 - - -, f 5;
#X floatatom 1139 578 5 0 0 0 - - -, f 5;
#X floatatom 715 654 5 0 0 0 - - -, f 5;
#X msg 223 37 bang;
#X obj 223 6 loadbang;
#X obj 885 82 delay 1;
#X msg 940 151 1000;
#X msg 985 151 5000;
#X obj 715 693 outlet;
#X obj 779 693 outlet;
#X obj 824 693 outlet;
#X obj 870 693 outlet;
#X obj 915 693 outlet;
#X obj 960 693 outlet;
#X obj 1005 693 outlet;
#X obj 1051 693 outlet;
#X obj 1096 693 outlet;
#X obj 1142 693 outlet;
#X obj 1187 693 outlet;
#X obj 1233 693 outlet;
#X obj 1278 693 outlet;
#N canvas 0 0 1440 847 temps1 0;
#X obj 98 102 nxRandom;
#X msg 119 59 1;
#X msg 147 59 200;
#X obj 65 59 delay 1;
#X msg 64 17 bang;
#X obj 216 102 nxRandom;
#X msg 237 59 1;
#X msg 265 59 200;
#X obj 183 59 delay 1;
#X msg 182 17 bang;
#X obj 329 102 nxRandom;
#X msg 350 59 1;
#X msg 378 59 200;
#X obj 296 59 delay 1;
#X msg 295 17 bang;
#X obj 447 102 nxRandom;
#X msg 468 59 1;
#X msg 496 59 200;
#X obj 414 59 delay 1;
#X msg 413 17 bang;
#X obj 528 101 nxRandom;
#X msg 581 58 1;
#X msg 609 58 200;
#X obj 527 58 delay 1;
#X msg 528 11 bang;
#X obj 678 101 nxRandom;
#X msg 699 58 1;
#X msg 727 58 200;
#X obj 645 58 delay 1;
#X msg 644 16 bang;
#X obj 791 101 nxRandom;
#X msg 812 58 1;
#X msg 840 58 200;
#X obj 758 58 delay 1;
#X msg 757 16 bang;
#X obj 909 101 nxRandom;
#X msg 930 58 1;
#X msg 958 58 200;
#X obj 876 58 delay 1;
#X msg 875 16 bang;
#X obj 1022 100 nxRandom;
#X msg 1043 57 1;
#X msg 1071 57 200;
#X obj 989 57 delay 1;
#X msg 988 15 bang;
#X obj 1140 100 nxRandom;
#X msg 1161 57 1;
#X msg 1189 57 200;
#X obj 1107 57 delay 1;
#X msg 1106 15 bang;
#X obj 1253 100 nxRandom;
#X msg 1274 57 1;
#X msg 1302 57 200;
#X obj 1220 57 delay 1;
#X msg 1219 15 bang;
#X obj 1371 100 nxRandom;
#X msg 1392 57 1;
#X msg 1420 57 200;
#X obj 1338 57 delay 1;
#X msg 1337 15 bang;
#X msg 65 -239 bang;
#X obj 65 -267 inlet;
#X obj 98 142 outlet;
#X obj 216 141 outlet;
#X obj 330 140 outlet;
#X obj 448 139 outlet;
#X obj 528 140 outlet;
#X obj 678 143 outlet;
#X obj 793 139 outlet;
#X obj 910 134 outlet;
#X obj 1022 132 outlet;
#X obj 1141 132 outlet;
#X obj 1253 133 outlet;
#X obj 1370 136 outlet;
#X connect 0 0 62 0;
#X connect 1 0 0 1;
#X connect 2 0 0 2;
#X connect 3 0 0 0;
#X connect 4 0 3 0;
#X connect 4 0 1 0;
#X connect 4 0 2 0;
#X connect 5 0 63 0;
#X connect 6 0 5 1;
#X connect 7 0 5 2;
#X connect 8 0 5 0;
#X connect 9 0 8 0;
#X connect 9 0 6 0;
#X connect 9 0 7 0;
#X connect 10 0 64 0;
#X connect 11 0 10 1;
#X connect 12 0 10 2;
#X connect 13 0 10 0;
#X connect 14 0 13 0;
#X connect 14 0 11 0;
#X connect 14 0 12 0;
#X connect 15 0 65 0;
#X connect 16 0 15 1;
#X connect 17 0 15 2;
#X connect 18 0 15 0;
#X connect 19 0 18 0;
#X connect 19 0 16 0;
#X connect 19 0 17 0;
#X connect 20 0 66 0;
#X connect 21 0 20 1;
#X connect 22 0 20 2;
#X connect 23 0 20 0;
#X connect 24 0 23 0;
#X connect 24 0 21 0;
#X connect 24 0 22 0;
#X connect 25 0 67 0;
#X connect 26 0 25 1;
#X connect 27 0 25 2;
#X connect 28 0 25 0;
#X connect 29 0 28 0;
#X connect 29 0 26 0;
#X connect 29 0 27 0;
#X connect 30 0 68 0;
#X connect 31 0 30 1;
#X connect 32 0 30 2;
#X connect 33 0 30 0;
#X connect 34 0 33 0;
#X connect 34 0 31 0;
#X connect 34 0 32 0;
#X connect 35 0 69 0;
#X connect 36 0 35 1;
#X connect 37 0 35 2;
#X connect 38 0 35 0;
#X connect 39 0 38 0;
#X connect 39 0 36 0;
#X connect 39 0 37 0;
#X connect 40 0 70 0;
#X connect 41 0 40 1;
#X connect 42 0 40 2;
#X connect 43 0 40 0;
#X connect 44 0 43 0;
#X connect 44 0 41 0;
#X connect 44 0 42 0;
#X connect 45 0 71 0;
#X connect 46 0 45 1;
#X connect 47 0 45 2;
#X connect 48 0 45 0;
#X connect 49 0 48 0;
#X connect 49 0 46 0;
#X connect 49 0 47 0;
#X connect 50 0 72 0;
#X connect 51 0 50 1;
#X connect 52 0 50 2;
#X connect 53 0 50 0;
#X connect 54 0 53 0;
#X connect 54 0 51 0;
#X connect 54 0 52 0;
#X connect 55 0 73 0;
#X connect 56 0 55 1;
#X connect 57 0 55 2;
#X connect 58 0 55 0;
#X connect 59 0 58 0;
#X connect 59 0 56 0;
#X connect 59 0 57 0;
#X connect 60 0 4 0;
#X connect 60 0 9 0;
#X connect 60 0 14 0;
#X connect 60 0 19 0;
#X connect 60 0 24 0;
#X connect 60 0 29 0;
#X connect 60 0 34 0;
#X connect 60 0 39 0;
#X connect 60 0 44 0;
#X connect 60 0 49 0;
#X connect 60 0 54 0;
#X connect 60 0 59 0;
#X connect 61 0 60 0;
#X restore 191 551 pd temps1;
#X floatatom 192 596 5 0 0 0 - - -, f 5;
#X floatatom 232 596 5 0 0 0 - - -, f 5;
#X floatatom 269 596 5 0 0 0 - - -, f 5;
#X floatatom 309 596 5 0 0 0 - - -, f 5;
#X floatatom 346 596 5 0 0 0 - - -, f 5;
#X floatatom 386 596 5 0 0 0 - - -, f 5;
#X floatatom 423 596 5 0 0 0 - - -, f 5;
#X floatatom 463 596 5 0 0 0 - - -, f 5;
#X floatatom 501 596 5 0 0 0 - - -, f 5;
#X floatatom 541 596 5 0 0 0 - - -, f 5;
#X floatatom 578 596 5 0 0 0 - - -, f 5;
#X floatatom 618 596 5 0 0 0 - - -, f 5;
#X floatatom 191 632 5 0 0 0 - - -, f 5;
#X obj 191 671 outlet;
#X floatatom 22 715 5 0 0 0 - - -, f 5;
#X floatatom 62 715 5 0 0 0 - - -, f 5;
#X floatatom 99 715 5 0 0 0 - - -, f 5;
#X floatatom 139 715 5 0 0 0 - - -, f 5;
#X floatatom 176 715 5 0 0 0 - - -, f 5;
#X floatatom 216 715 5 0 0 0 - - -, f 5;
#X floatatom 253 715 5 0 0 0 - - -, f 5;
#X floatatom 293 715 5 0 0 0 - - -, f 5;
#X floatatom 331 715 5 0 0 0 - - -, f 5;
#X floatatom 371 715 5 0 0 0 - - -, f 5;
#X floatatom 408 715 5 0 0 0 - - -, f 5;
#X floatatom 448 715 5 0 0 0 - - -, f 5;
#X floatatom 21 751 5 0 0 0 - - -, f 5;
#X obj 21 790 outlet;
#N canvas 0 0 1440 847 temps2 0;
#X obj 98 102 nxRandom;
#X msg 119 59 1;
#X msg 147 59 200;
#X obj 65 59 delay 1;
#X msg 64 17 bang;
#X obj 216 102 nxRandom;
#X msg 237 59 1;
#X msg 265 59 200;
#X obj 183 59 delay 1;
#X msg 182 17 bang;
#X obj 329 102 nxRandom;
#X msg 350 59 1;
#X msg 378 59 200;
#X obj 296 59 delay 1;
#X msg 295 17 bang;
#X obj 447 102 nxRandom;
#X msg 468 59 1;
#X msg 496 59 200;
#X obj 414 59 delay 1;
#X msg 413 17 bang;
#X obj 528 101 nxRandom;
#X msg 581 58 1;
#X msg 609 58 200;
#X obj 527 58 delay 1;
#X msg 528 11 bang;
#X obj 678 101 nxRandom;
#X msg 699 58 1;
#X msg 727 58 200;
#X obj 645 58 delay 1;
#X msg 644 16 bang;
#X obj 791 101 nxRandom;
#X msg 812 58 1;
#X msg 840 58 200;
#X obj 758 58 delay 1;
#X msg 757 16 bang;
#X obj 909 101 nxRandom;
#X msg 930 58 1;
#X msg 958 58 200;
#X obj 876 58 delay 1;
#X msg 875 16 bang;
#X obj 1022 100 nxRandom;
#X msg 1043 57 1;
#X msg 1071 57 200;
#X obj 989 57 delay 1;
#X msg 988 15 bang;
#X obj 1140 100 nxRandom;
#X msg 1161 57 1;
#X msg 1189 57 200;
#X obj 1107 57 delay 1;
#X msg 1106 15 bang;
#X obj 1253 100 nxRandom;
#X msg 1274 57 1;
#X msg 1302 57 200;
#X obj 1220 57 delay 1;
#X msg 1219 15 bang;
#X obj 1371 100 nxRandom;
#X msg 1392 57 1;
#X msg 1420 57 200;
#X obj 1338 57 delay 1;
#X msg 1337 15 bang;
#X msg 65 -239 bang;
#X obj 65 -267 inlet;
#X obj 98 142 outlet;
#X obj 216 141 outlet;
#X obj 330 140 outlet;
#X obj 448 139 outlet;
#X obj 528 140 outlet;
#X obj 678 143 outlet;
#X obj 793 139 outlet;
#X obj 910 134 outlet;
#X obj 1022 132 outlet;
#X obj 1141 132 outlet;
#X obj 1253 133 outlet;
#X obj 1370 136 outlet;
#X connect 0 0 62 0;
#X connect 1 0 0 1;
#X connect 2 0 0 2;
#X connect 3 0 0 0;
#X connect 4 0 3 0;
#X connect 4 0 1 0;
#X connect 4 0 2 0;
#X connect 5 0 63 0;
#X connect 6 0 5 1;
#X connect 7 0 5 2;
#X connect 8 0 5 0;
#X connect 9 0 8 0;
#X connect 9 0 6 0;
#X connect 9 0 7 0;
#X connect 10 0 64 0;
#X connect 11 0 10 1;
#X connect 12 0 10 2;
#X connect 13 0 10 0;
#X connect 14 0 13 0;
#X connect 14 0 11 0;
#X connect 14 0 12 0;
#X connect 15 0 65 0;
#X connect 16 0 15 1;
#X connect 17 0 15 2;
#X connect 18 0 15 0;
#X connect 19 0 18 0;
#X connect 19 0 16 0;
#X connect 19 0 17 0;
#X connect 20 0 66 0;
#X connect 21 0 20 1;
#X connect 22 0 20 2;
#X connect 23 0 20 0;
#X connect 24 0 23 0;
#X connect 24 0 21 0;
#X connect 24 0 22 0;
#X connect 25 0 67 0;
#X connect 26 0 25 1;
#X connect 27 0 25 2;
#X connect 28 0 25 0;
#X connect 29 0 28 0;
#X connect 29 0 26 0;
#X connect 29 0 27 0;
#X connect 30 0 68 0;
#X connect 31 0 30 1;
#X connect 32 0 30 2;
#X connect 33 0 30 0;
#X connect 34 0 33 0;
#X connect 34 0 31 0;
#X connect 34 0 32 0;
#X connect 35 0 69 0;
#X connect 36 0 35 1;
#X connect 37 0 35 2;
#X connect 38 0 35 0;
#X connect 39 0 38 0;
#X connect 39 0 36 0;
#X connect 39 0 37 0;
#X connect 40 0 70 0;
#X connect 41 0 40 1;
#X connect 42 0 40 2;
#X connect 43 0 40 0;
#X connect 44 0 43 0;
#X connect 44 0 41 0;
#X connect 44 0 42 0;
#X connect 45 0 71 0;
#X connect 46 0 45 1;
#X connect 47 0 45 2;
#X connect 48 0 45 0;
#X connect 49 0 48 0;
#X connect 49 0 46 0;
#X connect 49 0 47 0;
#X connect 50 0 72 0;
#X connect 51 0 50 1;
#X connect 52 0 50 2;
#X connect 53 0 50 0;
#X connect 54 0 53 0;
#X connect 54 0 51 0;
#X connect 54 0 52 0;
#X connect 55 0 73 0;
#X connect 56 0 55 1;
#X connect 57 0 55 2;
#X connect 58 0 55 0;
#X connect 59 0 58 0;
#X connect 59 0 56 0;
#X connect 59 0 57 0;
#X connect 60 0 4 0;
#X connect 60 0 9 0;
#X connect 60 0 14 0;
#X connect 60 0 19 0;
#X connect 60 0 24 0;
#X connect 60 0 29 0;
#X connect 60 0 34 0;
#X connect 60 0 39 0;
#X connect 60 0 44 0;
#X connect 60 0 49 0;
#X connect 60 0 54 0;
#X connect 60 0 59 0;
#X connect 61 0 60 0;
#X restore 21 670 pd temps2;
#X floatatom 495 740 5 0 0 0 - - -, f 5;
#X floatatom 535 740 5 0 0 0 - - -, f 5;
#X floatatom 572 740 5 0 0 0 - - -, f 5;
#X floatatom 612 740 5 0 0 0 - - -, f 5;
#X floatatom 649 740 5 0 0 0 - - -, f 5;
#X floatatom 689 740 5 0 0 0 - - -, f 5;
#X floatatom 726 740 5 0 0 0 - - -, f 5;
#X floatatom 766 740 5 0 0 0 - - -, f 5;
#X floatatom 804 740 5 0 0 0 - - -, f 5;
#X floatatom 844 740 5 0 0 0 - - -, f 5;
#X floatatom 881 740 5 0 0 0 - - -, f 5;
#X floatatom 921 740 5 0 0 0 - - -, f 5;
#X floatatom 494 776 5 0 0 0 - - -, f 5;
#X obj 494 815 outlet;
#N canvas 0 0 1440 847 temps3 0;
#X obj 98 102 nxRandom;
#X msg 119 59 1;
#X msg 147 59 200;
#X obj 65 59 delay 1;
#X msg 64 17 bang;
#X obj 216 102 nxRandom;
#X msg 237 59 1;
#X msg 265 59 200;
#X obj 183 59 delay 1;
#X msg 182 17 bang;
#X obj 329 102 nxRandom;
#X msg 350 59 1;
#X msg 378 59 200;
#X obj 296 59 delay 1;
#X msg 295 17 bang;
#X obj 447 102 nxRandom;
#X msg 468 59 1;
#X msg 496 59 200;
#X obj 414 59 delay 1;
#X msg 413 17 bang;
#X obj 528 101 nxRandom;
#X msg 581 58 1;
#X msg 609 58 200;
#X obj 527 58 delay 1;
#X msg 528 11 bang;
#X obj 678 101 nxRandom;
#X msg 699 58 1;
#X msg 727 58 200;
#X obj 645 58 delay 1;
#X msg 644 16 bang;
#X obj 791 101 nxRandom;
#X msg 812 58 1;
#X msg 840 58 200;
#X obj 758 58 delay 1;
#X msg 757 16 bang;
#X obj 909 101 nxRandom;
#X msg 930 58 1;
#X msg 958 58 200;
#X obj 876 58 delay 1;
#X msg 875 16 bang;
#X obj 1022 100 nxRandom;
#X msg 1043 57 1;
#X msg 1071 57 200;
#X obj 989 57 delay 1;
#X msg 988 15 bang;
#X obj 1140 100 nxRandom;
#X msg 1161 57 1;
#X msg 1189 57 200;
#X obj 1107 57 delay 1;
#X msg 1106 15 bang;
#X obj 1253 100 nxRandom;
#X msg 1274 57 1;
#X msg 1302 57 200;
#X obj 1220 57 delay 1;
#X msg 1219 15 bang;
#X obj 1371 100 nxRandom;
#X msg 1392 57 1;
#X msg 1420 57 200;
#X obj 1338 57 delay 1;
#X msg 1337 15 bang;
#X msg 65 -239 bang;
#X obj 65 -267 inlet;
#X obj 98 142 outlet;
#X obj 216 141 outlet;
#X obj 330 140 outlet;
#X obj 448 139 outlet;
#X obj 528 140 outlet;
#X obj 678 143 outlet;
#X obj 793 139 outlet;
#X obj 910 134 outlet;
#X obj 1022 132 outlet;
#X obj 1141 132 outlet;
#X obj 1253 133 outlet;
#X obj 1370 136 outlet;
#X connect 0 0 62 0;
#X connect 1 0 0 1;
#X connect 2 0 0 2;
#X connect 3 0 0 0;
#X connect 4 0 3 0;
#X connect 4 0 1 0;
#X connect 4 0 2 0;
#X connect 5 0 63 0;
#X connect 6 0 5 1;
#X connect 7 0 5 2;
#X connect 8 0 5 0;
#X connect 9 0 8 0;
#X connect 9 0 6 0;
#X connect 9 0 7 0;
#X connect 10 0 64 0;
#X connect 11 0 10 1;
#X connect 12 0 10 2;
#X connect 13 0 10 0;
#X connect 14 0 13 0;
#X connect 14 0 11 0;
#X connect 14 0 12 0;
#X connect 15 0 65 0;
#X connect 16 0 15 1;
#X connect 17 0 15 2;
#X connect 18 0 15 0;
#X connect 19 0 18 0;
#X connect 19 0 16 0;
#X connect 19 0 17 0;
#X connect 20 0 66 0;
#X connect 21 0 20 1;
#X connect 22 0 20 2;
#X connect 23 0 20 0;
#X connect 24 0 23 0;
#X connect 24 0 21 0;
#X connect 24 0 22 0;
#X connect 25 0 67 0;
#X connect 26 0 25 1;
#X connect 27 0 25 2;
#X connect 28 0 25 0;
#X connect 29 0 28 0;
#X connect 29 0 26 0;
#X connect 29 0 27 0;
#X connect 30 0 68 0;
#X connect 31 0 30 1;
#X connect 32 0 30 2;
#X connect 33 0 30 0;
#X connect 34 0 33 0;
#X connect 34 0 31 0;
#X connect 34 0 32 0;
#X connect 35 0 69 0;
#X connect 36 0 35 1;
#X connect 37 0 35 2;
#X connect 38 0 35 0;
#X connect 39 0 38 0;
#X connect 39 0 36 0;
#X connect 39 0 37 0;
#X connect 40 0 70 0;
#X connect 41 0 40 1;
#X connect 42 0 40 2;
#X connect 43 0 40 0;
#X connect 44 0 43 0;
#X connect 44 0 41 0;
#X connect 44 0 42 0;
#X connect 45 0 71 0;
#X connect 46 0 45 1;
#X connect 47 0 45 2;
#X connect 48 0 45 0;
#X connect 49 0 48 0;
#X connect 49 0 46 0;
#X connect 49 0 47 0;
#X connect 50 0 72 0;
#X connect 51 0 50 1;
#X connect 52 0 50 2;
#X connect 53 0 50 0;
#X connect 54 0 53 0;
#X connect 54 0 51 0;
#X connect 54 0 52 0;
#X connect 55 0 73 0;
#X connect 56 0 55 1;
#X connect 57 0 55 2;
#X connect 58 0 55 0;
#X connect 59 0 58 0;
#X connect 59 0 56 0;
#X connect 59 0 57 0;
#X connect 60 0 4 0;
#X connect 60 0 9 0;
#X connect 60 0 14 0;
#X connect 60 0 19 0;
#X connect 60 0 24 0;
#X connect 60 0 29 0;
#X connect 60 0 34 0;
#X connect 60 0 39 0;
#X connect 60 0 44 0;
#X connect 60 0 49 0;
#X connect 60 0 54 0;
#X connect 60 0 59 0;
#X connect 61 0 60 0;
#X restore 494 695 pd temps3;
#X msg 561 170 up;
#X msg 695 170 updown;
#X msg 628 170 down;
#X msg 747 143 updown;
#X msg 795 142 5;
#X msg 663 170 11;
#X msg 742 170 11;
#X msg 592 171 11;
#X obj 559 103 select 0 1 2 3;
#X floatatom 559 76 5 0 0 0 - - -, f 5;
#X obj 559 31 inlet;
#X connect 0 0 83 0;
#X connect 1 0 0 1;
#X connect 2 0 0 2;
#X connect 3 0 0 0;
#X connect 4 0 3 0;
#X connect 4 0 1 0;
#X connect 4 0 2 0;
#X connect 5 0 6 0;
#X connect 6 0 7 0;
#X connect 6 1 8 0;
#X connect 6 2 9 0;
#X connect 6 3 10 0;
#X connect 6 4 11 0;
#X connect 6 5 12 0;
#X connect 6 6 13 0;
#X connect 6 7 14 0;
#X connect 6 8 15 0;
#X connect 6 9 16 0;
#X connect 6 10 17 0;
#X connect 6 11 18 0;
#X connect 7 0 83 0;
#X connect 7 0 102 0;
#X connect 7 0 115 0;
#X connect 7 0 129 0;
#X connect 7 0 144 0;
#X connect 8 0 84 0;
#X connect 8 0 103 0;
#X connect 8 0 116 0;
#X connect 8 0 130 0;
#X connect 8 0 145 0;
#X connect 9 0 85 0;
#X connect 9 0 104 0;
#X connect 9 0 117 0;
#X connect 9 0 131 0;
#X connect 9 0 146 0;
#X connect 10 0 86 0;
#X connect 10 0 105 0;
#X connect 10 0 118 0;
#X connect 10 0 132 0;
#X connect 10 0 147 0;
#X connect 11 0 87 0;
#X connect 11 0 106 0;
#X connect 11 0 119 0;
#X connect 11 0 133 0;
#X connect 11 0 148 0;
#X connect 12 0 88 0;
#X connect 12 0 107 0;
#X connect 12 0 120 0;
#X connect 12 0 134 0;
#X connect 12 0 149 0;
#X connect 13 0 89 0;
#X connect 13 0 108 0;
#X connect 13 0 121 0;
#X connect 13 0 135 0;
#X connect 13 0 150 0;
#X connect 14 0 90 0;
#X connect 14 0 109 0;
#X connect 14 0 122 0;
#X connect 14 0 136 0;
#X connect 14 0 151 0;
#X connect 15 0 91 0;
#X connect 15 0 110 0;
#X connect 15 0 123 0;
#X connect 15 0 137 0;
#X connect 15 0 152 0;
#X connect 16 0 92 0;
#X connect 16 0 111 0;
#X connect 16 0 124 0;
#X connect 16 0 138 0;
#X connect 16 0 153 0;
#X connect 17 0 93 0;
#X connect 17 0 112 0;
#X connect 17 0 125 0;
#X connect 17 0 139 0;
#X connect 17 0 154 0;
#X connect 18 0 94 0;
#X connect 18 0 113 0;
#X connect 18 0 126 0;
#X connect 18 0 140 0;
#X connect 18 0 155 0;
#X connect 19 0 23 0;
#X connect 20 0 19 0;
#X connect 21 0 20 0;
#X connect 21 0 99 0;
#X connect 21 0 100 0;
#X connect 21 0 24 0;
#X connect 22 0 26 0;
#X connect 23 0 22 1;
#X connect 24 0 25 0;
#X connect 25 0 22 0;
#X connect 26 0 5 0;
#X connect 27 0 84 0;
#X connect 28 0 27 1;
#X connect 29 0 27 2;
#X connect 30 0 27 0;
#X connect 31 0 30 0;
#X connect 31 0 28 0;
#X connect 31 0 29 0;
#X connect 32 0 85 0;
#X connect 33 0 32 1;
#X connect 34 0 32 2;
#X connect 35 0 32 0;
#X connect 36 0 35 0;
#X connect 36 0 33 0;
#X connect 36 0 34 0;
#X connect 37 0 86 0;
#X connect 38 0 37 1;
#X connect 39 0 37 2;
#X connect 40 0 37 0;
#X connect 41 0 40 0;
#X connect 41 0 38 0;
#X connect 41 0 39 0;
#X connect 42 0 87 0;
#X connect 43 0 42 1;
#X connect 44 0 42 2;
#X connect 45 0 42 0;
#X connect 46 0 45 0;
#X connect 46 0 43 0;
#X connect 46 0 44 0;
#X connect 47 0 88 0;
#X connect 48 0 47 1;
#X connect 49 0 47 2;
#X connect 50 0 47 0;
#X connect 51 0 50 0;
#X connect 51 0 48 0;
#X connect 51 0 49 0;
#X connect 52 0 89 0;
#X connect 53 0 52 1;
#X connect 54 0 52 2;
#X connect 55 0 52 0;
#X connect 56 0 55 0;
#X connect 56 0 53 0;
#X connect 56 0 54 0;
#X connect 57 0 90 0;
#X connect 58 0 57 1;
#X connect 59 0 57 2;
#X connect 60 0 57 0;
#X connect 61 0 60 0;
#X connect 61 0 58 0;
#X connect 61 0 59 0;
#X connect 62 0 91 0;
#X connect 63 0 62 1;
#X connect 64 0 62 2;
#X connect 65 0 62 0;
#X connect 66 0 65 0;
#X connect 66 0 63 0;
#X connect 66 0 64 0;
#X connect 67 0 92 0;
#X connect 68 0 67 1;
#X connect 69 0 67 2;
#X connect 70 0 67 0;
#X connect 71 0 70 0;
#X connect 71 0 68 0;
#X connect 71 0 69 0;
#X connect 72 0 93 0;
#X connect 73 0 72 1;
#X connect 74 0 72 2;
#X connect 75 0 72 0;
#X connect 76 0 75 0;
#X connect 76 0 73 0;
#X connect 76 0 74 0;
#X connect 77 0 94 0;
#X connect 78 0 77 1;
#X connect 79 0 77 2;
#X connect 80 0 77 0;
#X connect 81 0 80 0;
#X connect 81 0 78 0;
#X connect 81 0 79 0;
#X connect 82 0 4 0;
#X connect 82 0 31 0;
#X connect 82 0 36 0;
#X connect 82 0 41 0;
#X connect 82 0 46 0;
#X connect 82 0 51 0;
#X connect 82 0 56 0;
#X connect 82 0 61 0;
#X connect 82 0 66 0;
#X connect 82 0 71 0;
#X connect 82 0 76 0;
#X connect 82 0 81 0;
#X connect 82 0 114 0;
#X connect 82 0 143 0;
#X connect 82 0 158 0;
#X connect 83 0 95 0;
#X connect 84 0 95 0;
#X connect 85 0 95 0;
#X connect 86 0 95 0;
#X connect 87 0 95 0;
#X connect 88 0 95 0;
#X connect 89 0 95 0;
#X connect 90 0 95 0;
#X connect 91 0 95 0;
#X connect 92 0 95 0;
#X connect 93 0 95 0;
#X connect 94 0 95 0;
#X connect 95 0 101 0;
#X connect 96 0 82 0;
#X connect 96 0 98 0;
#X connect 97 0 96 0;
#X connect 98 0 21 0;
#X connect 99 0 19 1;
#X connect 100 0 19 2;
#X connect 114 0 115 0;
#X connect 114 1 116 0;
#X connect 114 2 117 0;
#X connect 114 3 118 0;
#X connect 114 4 119 0;
#X connect 114 5 120 0;
#X connect 114 6 121 0;
#X connect 114 7 122 0;
#X connect 114 8 123 0;
#X connect 114 9 124 0;
#X connect 114 10 125 0;
#X connect 114 11 126 0;
#X connect 115 0 127 0;
#X connect 127 0 128 0;
#X connect 129 0 141 0;
#X connect 141 0 142 0;
#X connect 143 0 129 0;
#X connect 143 1 130 0;
#X connect 143 2 131 0;
#X connect 143 3 132 0;
#X connect 143 4 133 0;
#X connect 143 5 134 0;
#X connect 143 6 135 0;
#X connect 143 7 136 0;
#X connect 143 8 137 0;
#X connect 143 9 138 0;
#X connect 143 10 139 0;
#X connect 143 11 140 0;
#X connect 144 0 156 0;
#X connect 156 0 157 0;
#X connect 158 0 144 0;
#X connect 158 1 145 0;
#X connect 158 2 146 0;
#X connect 158 3 147 0;
#X connect 158 4 148 0;
#X connect 158 5 149 0;
#X connect 158 6 150 0;
#X connect 158 7 151 0;
#X connect 158 8 152 0;
#X connect 158 9 153 0;
#X connect 158 10 154 0;
#X connect 158 11 155 0;
#X connect 159 0 26 0;
#X connect 160 0 26 0;
#X connect 161 0 26 0;
#X connect 162 0 26 0;
#X connect 163 0 26 4;
#X connect 164 0 26 4;
#X connect 165 0 26 4;
#X connect 166 0 26 4;
#X connect 167 0 159 0;
#X connect 167 0 166 0;
#X connect 167 1 161 0;
#X connect 167 1 164 0;
#X connect 167 2 160 0;
#X connect 167 2 165 0;
#X connect 167 3 162 0;
#X connect 167 3 163 0;
#X connect 168 0 167 0;
#X connect 169 0 168 0;
#X restore 1660 107 pd preset1;
#X obj 1392 41 loadbang;
#X msg 1392 79 bang;
#X msg 1336 110 updown;
#X obj 1392 108 delay 1;
#X floatatom 1335 335 5 0 0 0 - - -, f 5;
#X obj 1335 270 metro 200;
#X obj 1335 386 outlet;
#X obj 1335 303 counter 0 127;
#X obj 1501 41 loadbang;
#X msg 1501 79 bang;
#X msg 1445 110 updown;
#X obj 1501 108 delay 1;
#X floatatom 1444 335 5 0 0 0 - - -, f 5;
#X obj 1444 270 metro 200;
#X obj 1444 386 outlet;
#X obj 1444 303 counter 0 127;
#X obj 1608 39 loadbang;
#X msg 1608 77 bang;
#X msg 1552 108 updown;
#X obj 1608 106 delay 1;
#X floatatom 1551 333 5 0 0 0 - - -, f 5;
#X obj 1551 268 metro 200;
#X obj 1551 384 outlet;
#X obj 1551 301 counter 0 127;
#X floatatom 1456 192 5 0 0 0 - - -, f 5;
#X floatatom 1420 192 5 0 0 0 - - -, f 5;
#X floatatom 1384 192 5 0 0 0 - - -, f 5;
#X floatatom 1660 70 5 0 0 0 - - -, f 5;
#X obj 1663 39 inlet;
#X connect 0 0 1 0;
#X connect 1 0 2 0;
#X connect 1 0 3 0;
#X connect 2 0 8 0;
#X connect 3 0 5 0;
#X connect 4 0 7 0;
#X connect 5 0 8 0;
#X connect 6 0 64 1;
#X connect 8 0 4 0;
#X connect 21 0 22 0;
#X connect 21 1 23 0;
#X connect 21 2 24 0;
#X connect 21 3 25 0;
#X connect 21 4 26 0;
#X connect 21 5 27 0;
#X connect 21 6 28 0;
#X connect 21 7 29 0;
#X connect 21 8 30 0;
#X connect 21 9 31 0;
#X connect 21 10 32 0;
#X connect 21 11 33 0;
#X connect 21 12 34 0;
#X connect 21 13 35 0;
#X connect 21 14 36 0;
#X connect 21 15 37 0;
#X connect 21 16 38 0;
#X connect 21 17 39 0;
#X connect 21 18 40 0;
#X connect 21 19 41 0;
#X connect 42 0 69 0;
#X connect 42 1 68 0;
#X connect 42 2 67 0;
#X connect 42 3 6 0;
#X connect 42 4 18 0;
#X connect 42 5 19 0;
#X connect 42 6 20 0;
#X connect 42 7 9 0;
#X connect 42 8 10 0;
#X connect 42 9 11 0;
#X connect 42 10 12 0;
#X connect 42 11 13 0;
#X connect 42 12 14 0;
#X connect 42 13 15 0;
#X connect 42 14 16 0;
#X connect 42 15 17 0;
#X connect 43 0 44 0;
#X connect 44 0 45 0;
#X connect 44 0 46 0;
#X connect 45 0 50 0;
#X connect 46 0 48 0;
#X connect 47 0 49 0;
#X connect 48 0 50 0;
#X connect 50 0 47 0;
#X connect 51 0 52 0;
#X connect 52 0 53 0;
#X connect 52 0 54 0;
#X connect 53 0 58 0;
#X connect 54 0 56 0;
#X connect 55 0 57 0;
#X connect 56 0 58 0;
#X connect 58 0 55 0;
#X connect 59 0 60 0;
#X connect 60 0 61 0;
#X connect 60 0 62 0;
#X connect 61 0 66 0;
#X connect 62 0 64 0;
#X connect 63 0 65 0;
#X connect 64 0 66 0;
#X connect 66 0 63 0;
#X connect 67 0 56 1;
#X connect 68 0 48 1;
#X connect 69 0 5 1;
#X connect 70 0 42 0;
#X connect 71 0 70 0;
